HIERARCHY
ROOT Hips
{
	OFFSET 0.000000 0.000000 0.000000
	CHANNELS 6 Xposition Yposition Zposition Zrotation Yrotation Xrotation 
	JOINT Spine1
	{
		OFFSET -0.013727 5.003762 -0.053727
		CHANNELS 3 Zrotation Yrotation Xrotation
		JOINT Spine2
		{
			OFFSET -0.000000 7.125302 -0.029825
			CHANNELS 3 Zrotation Yrotation Xrotation
			JOINT Chest
			{
				OFFSET -0.000001 7.550063 -0.815971
				CHANNELS 3 Zrotation Yrotation Xrotation
				JOINT Neck1
				{
					OFFSET -0.181676 26.311296 -0.553348
					CHANNELS 3 Zrotation Yrotation Xrotation
					JOINT Neck2
					{
						OFFSET -0.000003 7.709399 2.302586
						CHANNELS 3 Zrotation Yrotation Xrotation
						JOINT Head
						{
							OFFSET -0.000005 6.128914 1.953708
							CHANNELS 3 Zrotation Yrotation Xrotation
							JOINT HeadEnd
							{
								OFFSET 0.003598 16.065401 -1.835379
								CHANNELS 3 Zrotation Yrotation Xrotation
								End Site
								{
									OFFSET 0.000000 0.000000 0.000000
								}
							}
							JOINT Jaw
							{
								OFFSET 0.002637 0.475592 3.094940
								CHANNELS 3 Zrotation Yrotation Xrotation
								End Site
								{
									OFFSET 0.000000 0.000000 0.000000
								}
							}
							JOINT LeftEye
							{
								OFFSET 3.206381 5.380207 7.586883
								CHANNELS 3 Zrotation Yrotation Xrotation
								End Site
								{
									OFFSET 0.000000 0.000000 0.000000
								}
							}
							JOINT RightEye
							{
								OFFSET -3.222440 5.361866 7.558233
								CHANNELS 3 Zrotation Yrotation Xrotation
								End Site
								{
									OFFSET 0.000000 0.000000 0.000000
								}
							}
						}
					}
				}
				JOINT LeftShoulder
				{
					OFFSET 1.621652 23.237165 5.113413
					CHANNELS 3 Zrotation Yrotation Xrotation
					JOINT LeftArm
					{
						OFFSET 14.919845 -0.000000 -5.502326
						CHANNELS 3 Zrotation Yrotation Xrotation
						JOINT LeftForeArm
						{
							OFFSET 28.739309 0.000004 -0.002589
							CHANNELS 3 Zrotation Yrotation Xrotation
							JOINT LeftHand
							{
								OFFSET 27.093979 -0.000003 0.002610
								CHANNELS 3 Zrotation Yrotation Xrotation
								JOINT LeftHandThumb1
								{
									OFFSET 2.276480 -1.392046 3.191413
									CHANNELS 3 Zrotation Yrotation Xrotation
									JOINT LeftHandThumb2
									{
										OFFSET 4.012840 -1.828126 1.641655
										CHANNELS 3 Zrotation Yrotation Xrotation
										JOINT LeftHandThumb3
										{
											OFFSET 2.798518 0.000001 -0.000003
											CHANNELS 3 Zrotation Yrotation Xrotation
											JOINT LeftHandThumbEnd
											{
												OFFSET 3.180790 -0.000003 0.000002
												CHANNELS 3 Zrotation Yrotation Xrotation
												End Site
												{
													OFFSET 0.000000 0.000000 0.000000
												}
											}
										}
									}
								}
								JOINT LeftHandIndex1
								{
									OFFSET 3.247553 -0.531998 2.296170
									CHANNELS 3 Zrotation Yrotation Xrotation
									JOINT LeftHandIndex2
									{
										OFFSET 6.364578 0.012062 0.178599
										CHANNELS 3 Zrotation Yrotation Xrotation
										JOINT LeftHandIndex3
										{
											OFFSET 3.662366 0.000001 0.000000
											CHANNELS 3 Zrotation Yrotation Xrotation
											JOINT LeftHandIndex4
											{
												OFFSET 2.329242 0.000002 0.000003
												CHANNELS 3 Zrotation Yrotation Xrotation
												JOINT LeftHandIndexEnd
												{
													OFFSET 2.759619 -0.180538 -0.113024
													CHANNELS 3 Zrotation Yrotation Xrotation
													End Site
													{
														OFFSET 0.000000 0.000000 0.000000
													}
												}
											}
										}
									}
								}
								JOINT LeftHandMiddle1
								{
									OFFSET 3.163499 0.240982 1.000332
									CHANNELS 3 Zrotation Yrotation Xrotation
									JOINT LeftHandMiddle2
									{
										OFFSET 6.190778 -0.259277 -1.002549
										CHANNELS 3 Zrotation Yrotation Xrotation
										JOINT LeftHandMiddle3
										{
											OFFSET 4.356523 -0.000006 0.000001
											CHANNELS 3 Zrotation Yrotation Xrotation
											JOINT LeftHandMiddle4
											{
												OFFSET 2.996875 -0.000006 0.000000
												CHANNELS 3 Zrotation Yrotation Xrotation
												JOINT LeftHandMiddleEnd
												{
													OFFSET 2.304294 -0.294571 -0.031740
													CHANNELS 3 Zrotation Yrotation Xrotation
													End Site
													{
														OFFSET 0.000000 0.000000 0.000000
													}
												}
											}
										}
									}
								}
								JOINT LeftHandRing1
								{
									OFFSET 2.882641 -0.053650 -0.322543
									CHANNELS 3 Zrotation Yrotation Xrotation
									JOINT LeftHandRing2
									{
										OFFSET 5.854542 -0.486203 -1.373841
										CHANNELS 3 Zrotation Yrotation Xrotation
										JOINT LeftHandRing3
										{
											OFFSET 4.350580 0.000000 0.000003
											CHANNELS 3 Zrotation Yrotation Xrotation
											JOINT LeftHandRing4
											{
												OFFSET 2.651324 0.000007 0.000003
												CHANNELS 3 Zrotation Yrotation Xrotation
												JOINT LeftHandRingEnd
												{
													OFFSET 1.936111 0.077685 -0.000069
													CHANNELS 3 Zrotation Yrotation Xrotation
													End Site
													{
														OFFSET 0.000000 0.000000 0.000000
													}
												}
											}
										}
									}
								}
								JOINT LeftHandPinky1
								{
									OFFSET 2.865498 -0.310004 -1.600378
									CHANNELS 3 Zrotation Yrotation Xrotation
									JOINT LeftHandPinky2
									{
										OFFSET 5.087854 -1.331141 -1.771231
										CHANNELS 3 Zrotation Yrotation Xrotation
										JOINT LeftHandPinky3
										{
											OFFSET 3.070975 0.000003 0.000001
											CHANNELS 3 Zrotation Yrotation Xrotation
											JOINT LeftHandPinky4
											{
												OFFSET 1.549668 0.000000 0.000001
												CHANNELS 3 Zrotation Yrotation Xrotation
												JOINT LeftHandPinkyEnd
												{
													OFFSET 1.944895 -0.157801 0.057219
													CHANNELS 3 Zrotation Yrotation Xrotation
													End Site
													{
														OFFSET 0.000000 0.000000 0.000000
													}
												}
											}
										}
									}
								}
							}
						}
					}
				}
				JOINT RightShoulder
				{
					OFFSET -1.380118 23.180307 5.214157
					CHANNELS 3 Zrotation Yrotation Xrotation
					JOINT RightArm
					{
						OFFSET -15.037197 0.000013 -5.545604
						CHANNELS 3 Zrotation Yrotation Xrotation
						JOINT RightForeArm
						{
							OFFSET -28.736639 0.000002 -0.002597
							CHANNELS 3 Zrotation Yrotation Xrotation
							JOINT RightHand
							{
								OFFSET -27.133619 -0.000000 0.002613
								CHANNELS 3 Zrotation Yrotation Xrotation
								JOINT RightHandThumb1
								{
									OFFSET -2.274036 -1.383990 3.163128
									CHANNELS 3 Zrotation Yrotation Xrotation
									JOINT RightHandThumb2
									{
										OFFSET -4.011429 -1.827468 1.640915
										CHANNELS 3 Zrotation Yrotation Xrotation
										JOINT RightHandThumb3
										{
											OFFSET -2.794935 -0.000003 -0.000003
											CHANNELS 3 Zrotation Yrotation Xrotation
											JOINT RightHandThumbEnd
											{
												OFFSET -3.183855 0.000003 -0.000001
												CHANNELS 3 Zrotation Yrotation Xrotation
												End Site
												{
													OFFSET 0.000000 0.000000 0.000000
												}
											}
										}
									}
								}
								JOINT RightHandIndex1
								{
									OFFSET -3.253270 -0.520059 2.282867
									CHANNELS 3 Zrotation Yrotation Xrotation
									JOINT RightHandIndex2
									{
										OFFSET -6.341917 0.012473 0.178265
										CHANNELS 3 Zrotation Yrotation Xrotation
										JOINT RightHandIndex3
										{
											OFFSET -3.654875 -0.000008 -0.000000
											CHANNELS 3 Zrotation Yrotation Xrotation
											JOINT RightHandIndex4
											{
												OFFSET -2.327586 -0.000000 -0.000000
												CHANNELS 3 Zrotation Yrotation Xrotation
												JOINT RightHandIndexEnd
												{
													OFFSET -2.761789 -0.180657 -0.113079
													CHANNELS 3 Zrotation Yrotation Xrotation
													End Site
													{
														OFFSET 0.000000 0.000000 0.000000
													}
												}
											}
										}
									}
								}
								JOINT RightHandMiddle1
								{
									OFFSET -3.168107 0.246594 1.001031
									CHANNELS 3 Zrotation Yrotation Xrotation
									JOINT RightHandMiddle2
									{
										OFFSET -6.180829 -0.258836 -1.000896
										CHANNELS 3 Zrotation Yrotation Xrotation
										JOINT RightHandMiddle3
										{
											OFFSET -4.348905 0.000000 -0.000000
											CHANNELS 3 Zrotation Yrotation Xrotation
											JOINT RightHandMiddle4
											{
												OFFSET -3.000243 -0.000004 -0.000002
												CHANNELS 3 Zrotation Yrotation Xrotation
												JOINT RightHandMiddleEnd
												{
													OFFSET -2.302517 -0.294372 -0.031707
													CHANNELS 3 Zrotation Yrotation Xrotation
													End Site
													{
														OFFSET 0.000000 0.000000 0.000000
													}
												}
											}
										}
									}
								}
								JOINT RightHandRing1
								{
									OFFSET -2.885694 -0.067952 -0.308858
									CHANNELS 3 Zrotation Yrotation Xrotation
									JOINT RightHandRing2
									{
										OFFSET -5.854198 -0.486132 -1.373732
										CHANNELS 3 Zrotation Yrotation Xrotation
										JOINT RightHandRing3
										{
											OFFSET -4.338814 -0.000003 -0.000000
											CHANNELS 3 Zrotation Yrotation Xrotation
											JOINT RightHandRing4
											{
												OFFSET -2.654905 -0.000004 0.000004
												CHANNELS 3 Zrotation Yrotation Xrotation
												JOINT RightHandRingEnd
												{
													OFFSET -1.933570 0.077524 -0.000053
													CHANNELS 3 Zrotation Yrotation Xrotation
													End Site
													{
														OFFSET 0.000000 0.000000 0.000000
													}
												}
											}
										}
									}
								}
								JOINT RightHandPinky1
								{
									OFFSET -2.866430 -0.342798 -1.584145
									CHANNELS 3 Zrotation Yrotation Xrotation
									JOINT RightHandPinky2
									{
										OFFSET -5.091369 -1.332054 -1.772385
										CHANNELS 3 Zrotation Yrotation Xrotation
										JOINT RightHandPinky3
										{
											OFFSET -3.062666 -0.000007 0.000000
											CHANNELS 3 Zrotation Yrotation Xrotation
											JOINT RightHandPinky4
											{
												OFFSET -1.546527 0.000006 -0.000002
												CHANNELS 3 Zrotation Yrotation Xrotation
												JOINT RightHandPinkyEnd
												{
													OFFSET -1.945122 -0.157721 0.057211
													CHANNELS 3 Zrotation Yrotation Xrotation
													End Site
													{
														OFFSET 0.000000 0.000000 0.000000
													}
												}
											}
										}
									}
								}
							}
						}
					}
				}
			}
		}
	}
	JOINT LeftLeg
	{
		OFFSET 10.043214 -8.434526 2.595655
		CHANNELS 3 Zrotation Yrotation Xrotation
		JOINT LeftShin
		{
			OFFSET -0.000002 -43.221752 -0.802913
			CHANNELS 3 Zrotation Yrotation Xrotation
			JOINT LeftFoot
			{
				OFFSET 0.000001 -42.155094 -3.481523
				CHANNELS 3 Zrotation Yrotation Xrotation
				JOINT LeftToeBase
				{
					OFFSET -0.000001 -5.059475 13.231529
					CHANNELS 3 Zrotation Yrotation Xrotation
					JOINT LeftToeEnd
					{
						OFFSET -0.009607 -1.647615 6.513017
						CHANNELS 3 Zrotation Yrotation Xrotation
						End Site
						{
							OFFSET 0.000000 0.000000 0.000000
						}
					}
				}
			}
		}
	}
	JOINT RightLeg
	{
		OFFSET -10.047277 -8.295259 2.620317
		CHANNELS 3 Zrotation Yrotation Xrotation
		JOINT RightShin
		{
			OFFSET 0.000001 -43.362209 -0.805556
			CHANNELS 3 Zrotation Yrotation Xrotation
			JOINT RightFoot
			{
				OFFSET 0.000002 -42.117393 -3.478399
				CHANNELS 3 Zrotation Yrotation Xrotation
				JOINT RightToeBase
				{
					OFFSET -0.000001 -5.079609 13.284196
					CHANNELS 3 Zrotation Yrotation Xrotation
					JOINT RightToeEnd
					{
						OFFSET 0.009532 -1.634383 6.460591
						CHANNELS 3 Zrotation Yrotation Xrotation
						End Site
						{
							OFFSET 0.000000 0.000000 0.000000
						}
					}
				}
			}
		}
	}
}
MOTION
Frames: 5
Frame Time: 0.033333
-3.615498 96.211159 -3.370435 -0.451950 0.051196 3.283292 0.598603 0.312717 -0.766906 -0.538468 0.545525 -4.832884 -0.684416 -1.657134 10.356371 -1.982392 4.147379 12.219950 0.714556 4.837588 -3.434630 -1.547429 5.237157 -4.828948 0.000077 -0.000023 0.000005 0.011150 -0.070982 -0.047668 0.783251 -3.820118 -10.732575 -0.769063 3.669125 -10.685367 -1.815598 -16.113369 8.048916 -12.805440 -35.961765 -53.351902 -179.363724 -71.462967 179.203857 23.869980 -7.754459 -23.703695 -5.882101 9.861279 0.702590 -10.936860 -0.360576 7.156197 0.000001 8.774816 -0.000001 -16.394426 18.142694 6.346995 -1.844031 2.498502 -2.507276 -10.163589 4.678939 4.621103 -20.975994 -0.000006 0.000003 -21.226250 2.451691 -3.593992 0.000001 -0.000006 -0.000000 -1.362681 2.240797 -0.746323 -21.334887 0.584907 3.008320 -13.821194 -0.000004 0.000003 -23.887123 -0.249079 -0.839479 -60.431339 2.802765 -1.091492 -0.294024 1.679687 0.833255 -14.218190 0.093213 1.300579 -34.212006 -0.287567 0.967172 -20.033178 0.964534 1.212843 0.000000 0.000000 -0.000000 -3.440385 0.788233 0.501655 -15.928164 -3.167309 2.999703 -6.338818 -0.000002 0.000001 -18.123411 3.648176 -4.905662 -0.000006 0.000000 -0.000002 -9.493624 17.225344 4.821553 67.551964 40.203968 0.207537 -177.863998 36.538807 -178.837479 -14.052224 8.883637 -18.071224 2.243540 -5.255033 -3.180157 14.282877 -0.826593 6.952497 -0.000001 -12.690592 0.000000 15.606197 -18.326284 2.887032 1.665665 -1.955920 -2.878295 4.727793 -4.170583 4.993917 11.020512 0.000003 0.000000 12.109035 -3.735713 -2.866778 0.000001 -0.000000 0.000001 1.291984 -1.928547 -1.498088 14.800113 0.567470 3.865603 14.242551 -1.341733 -6.660648 19.631939 0.143927 -0.648242 49.897903 -0.883090 -6.296497 0.353028 -1.511149 -0.031941 20.222769 3.684308 2.316631 18.787245 0.000007 0.000000 10.751610 -0.479865 1.397905 0.000000 -0.000001 -0.000000 3.273804 0.305946 -0.580110 21.486792 11.830368 2.266134 8.162915 0.000002 0.000001 18.399054 -3.798978 -4.940565 0.000003 -0.000003 -0.000000 15.505434 6.996816 -21.823017 -0.146289 -0.707840 23.084898 -17.232050 -4.292568 0.458563 1.636439 -1.805446 0.207237 -0.000000 0.000000 0.000002 -9.056281 -10.869829 -6.329953 0.114801 0.587143 26.594591 11.341591 1.069809 -17.548733 -1.429698 1.005565 -0.869825 -0.000000 -0.000000 -0.000001 
-3.660696 96.150360 -3.383233 -0.490883 -0.062886 3.304745 0.631326 0.323054 -0.713862 -0.511344 0.518774 -4.826210 -0.648120 -1.593056 10.422100 -2.053562 4.085594 11.970292 0.657812 4.840648 -3.447685 -1.572231 5.309667 -4.772625 0.000077 -0.000022 0.000006 0.018852 -0.076958 -0.047679 0.785324 -3.830723 -10.733532 -0.756158 3.663630 -10.694323 -1.706669 -16.168537 7.959841 -12.844325 -35.642696 -53.574799 -179.455521 -71.774895 179.162781 23.964304 -8.177514 -23.990803 -5.882100 9.861278 0.702590 -10.936858 -0.360576 7.156196 0.000002 8.774816 -0.000001 -16.408497 18.172279 6.344584 -1.844031 2.498502 -2.507275 -10.163589 4.678938 4.621103 -20.975998 -0.000005 0.000003 -21.226254 2.451693 -3.593993 0.000001 -0.000006 -0.000000 -1.362680 2.240796 -0.746323 -21.334890 0.584907 3.008320 -13.821197 -0.000004 0.000002 -23.887131 -0.249079 -0.839480 -60.471157 2.675816 -1.088930 -0.294024 1.679687 0.833255 -14.218192 0.093214 1.300578 -34.212002 -0.287566 0.967170 -20.033180 0.964533 1.212842 0.000000 0.000000 0.000000 -3.440384 0.788233 0.501655 -15.928169 -3.167307 2.999703 -6.338817 -0.000001 0.000001 -18.123415 3.648175 -4.905661 -0.000006 0.000001 -0.000002 -9.573143 17.351973 4.896672 67.979828 40.350071 0.472417 -177.946655 36.524605 -178.886292 -14.003592 9.157154 -18.648777 2.243538 -5.255033 -3.180156 14.282877 -0.826592 6.952496 -0.000003 -12.690590 0.000000 15.453404 -18.249514 2.930210 1.665664 -1.955920 -2.878295 4.727794 -4.170582 4.993918 11.020511 0.000003 0.000000 12.109032 -3.735708 -2.866780 0.000001 -0.000000 0.000001 1.291984 -1.928548 -1.498089 14.800111 0.567471 3.865602 14.242553 -1.341732 -6.660647 19.631935 0.143928 -0.648243 49.678638 -0.890571 -6.273999 0.353029 -1.511150 -0.031940 20.222765 3.684308 2.316630 18.787243 0.000006 0.000003 10.751610 -0.479867 1.397906 -0.000001 0.000000 0.000000 3.273804 0.305948 -0.580109 21.486792 11.830365 2.266132 8.162915 0.000001 0.000000 18.399048 -3.798976 -4.940567 0.000003 -0.000001 -0.000002 15.621738 6.926222 -21.994869 -0.138098 -0.663665 23.462143 -17.212381 -4.101596 0.297255 1.639398 -1.827892 0.159797 0.000000 -0.000000 0.000002 -9.024655 -11.012048 -6.482988 0.110965 0.561961 26.800627 11.357182 1.318417 -17.712254 -1.430222 0.968922 -0.923469 0.000000 0.000000 -0.000001 
-3.695797 96.050514 -3.462245 -0.522854 -0.109543 3.309345 0.664440 0.332759 -0.662887 -0.511586 0.490442 -4.829765 -0.609731 -1.542065 10.475526 -2.103723 4.073878 11.744279 0.646897 4.892854 -3.462700 -1.614221 5.335246 -4.736202 0.000077 -0.000022 0.000006 0.028352 -0.086210 -0.042286 0.789503 -3.839479 -10.734717 -0.744617 3.663749 -10.703333 -1.568518 -16.289726 7.874413 -12.881718 -35.361122 -53.991589 -179.062851 -72.147583 178.824158 24.033125 -8.504258 -24.233046 -5.882100 9.861278 0.702590 -10.936860 -0.360575 7.156198 0.000001 8.774815 -0.000001 -16.390762 18.147573 6.359231 -1.844031 2.498502 -2.507276 -10.163591 4.678940 4.621103 -20.975996 -0.000004 0.000003 -21.226254 2.451692 -3.593992 0.000000 -0.000006 -0.000000 -1.362680 2.240796 -0.746323 -21.334894 0.584908 3.008320 -13.821197 -0.000004 0.000003 -23.887131 -0.249078 -0.839480 -60.540779 2.636517 -1.083801 -0.294025 1.679686 0.833255 -14.218192 0.093214 1.300579 -34.212006 -0.287565 0.967170 -20.033182 0.964534 1.212842 -0.000000 0.000000 0.000000 -3.440385 0.788233 0.501655 -15.928171 -3.167307 2.999704 -6.338817 -0.000001 0.000001 -18.123413 3.648175 -4.905660 -0.000006 -0.000000 -0.000002 -9.617558 17.438040 4.911221 68.444130 40.457317 0.668338 -178.108353 36.600487 -178.957779 -14.121400 9.379224 -19.698318 2.243538 -5.255032 -3.180156 14.282877 -0.826593 6.952496 -0.000001 -12.690590 0.000000 15.291235 -18.162333 3.000783 1.665664 -1.955919 -2.878294 4.727794 -4.170582 4.993917 11.020511 0.000003 0.000001 12.109031 -3.735708 -2.866779 0.000000 -0.000000 0.000002 1.291984 -1.928548 -1.498086 14.800113 0.567469 3.865604 14.242551 -1.341734 -6.660648 19.631937 0.143928 -0.648242 49.530167 -0.910388 -6.253805 0.353029 -1.511150 -0.031942 20.222769 3.684306 2.316629 18.787245 0.000007 0.000001 10.751610 -0.479866 1.397905 0.000001 0.000001 0.000001 3.273804 0.305947 -0.580111 21.486792 11.830364 2.266132 8.162916 0.000003 0.000000 18.399052 -3.798977 -4.940566 0.000003 -0.000002 -0.000000 15.697896 7.027931 -22.266802 -0.142174 -0.615015 23.922886 -17.227108 -4.050632 0.138560 1.640255 -1.846280 0.188378 -0.000000 0.000000 0.000002 -9.004481 -11.186152 -6.741499 0.126860 0.556887 27.213432 11.305452 1.579873 -17.989050 -1.429907 0.944961 -0.887484 0.000000 -0.000000 -0.000001 
-3.663703 95.928802 -3.516744 -0.568220 -0.214980 3.329550 0.682477 0.340464 -0.633320 -0.520518 0.463414 -4.819794 -0.563718 -1.512146 10.486904 -2.131737 4.056845 11.517174 0.660396 4.926900 -3.475034 -1.661654 5.364422 -4.695588 0.000077 -0.000023 0.000006 0.032712 -0.096022 -0.038952 0.790955 -3.847490 -10.719360 -0.737977 3.649124 -10.694324 -1.436487 -16.351133 7.782977 -13.001797 -35.162479 -54.480164 -178.288055 -72.503387 178.253387 23.950504 -8.669329 -24.432823 -5.882102 9.861278 0.702590 -10.936859 -0.360574 7.156197 0.000000 8.774815 -0.000001 -16.297443 18.111700 6.402318 -1.844031 2.498502 -2.507275 -10.163590 4.678941 4.621104 -20.975994 -0.000003 0.000003 -21.226255 2.451694 -3.593993 0.000000 -0.000006 -0.000000 -1.362680 2.240796 -0.746323 -21.334896 0.584909 3.008322 -13.821195 -0.000002 0.000003 -23.887131 -0.249077 -0.839480 -60.458141 2.649706 -1.084660 -0.294024 1.679686 0.833255 -14.218192 0.093215 1.300580 -34.211998 -0.287562 0.967171 -20.033180 0.964536 1.212842 -0.000000 -0.000000 0.000000 -3.440386 0.788233 0.501655 -15.928171 -3.167306 2.999705 -6.338816 -0.000001 0.000001 -18.123411 3.648176 -4.905661 -0.000006 0.000000 -0.000002 -9.651670 17.470829 4.906625 69.027939 40.502949 0.874636 -178.367966 36.659760 -179.101410 -14.289657 9.495046 -21.209620 2.243540 -5.255033 -3.180155 14.282877 -0.826593 6.952496 -0.000003 -12.690588 0.000001 15.156937 -18.073492 3.044580 1.665664 -1.955920 -2.878297 4.727795 -4.170582 4.993919 11.020511 0.000002 0.000001 12.109033 -3.735710 -2.866779 0.000001 -0.000001 0.000001 1.291985 -1.928548 -1.498088 14.800114 0.567467 3.865605 14.242554 -1.341735 -6.660649 19.631939 0.143926 -0.648243 49.476238 -0.910428 -6.201759 0.353029 -1.511149 -0.031941 20.222773 3.684304 2.316629 18.787245 0.000006 -0.000002 10.751610 -0.479869 1.397903 0.000000 0.000003 0.000000 3.273804 0.305947 -0.580110 21.486790 11.830361 2.266132 8.162916 0.000000 -0.000001 18.399054 -3.798980 -4.940567 0.000002 -0.000002 -0.000001 15.728116 7.288845 -22.588303 -0.147948 -0.585170 24.523071 -17.191883 -4.080936 -0.166170 1.642399 -1.858045 0.211692 0.000000 -0.000000 0.000002 -9.016929 -11.344557 -6.999498 0.134488 0.556887 27.590893 11.330030 1.858228 -18.302231 -1.430408 0.938668 -0.783090 0.000000 -0.000000 -0.000001 
-3.675026 95.828178 -3.555873 -0.668444 -0.413148 3.358406 0.688261 0.356977 -0.619101 -0.527941 0.432479 -4.816586 -0.485749 -1.496709 10.490196 -2.121248 4.007351 11.286645 0.675254 4.979527 -3.471675 -1.727901 5.429479 -4.596344 0.000077 -0.000022 0.000006 0.029120 -0.079088 -0.038929 0.787002 -3.828883 -10.714231 -0.740158 3.664062 -10.693088 -1.308829 -16.401108 7.717793 -13.067453 -35.031582 -55.058109 -177.389511 -72.778793 177.562820 23.733624 -8.676147 -24.496927 -5.882101 9.861278 0.702590 -10.936859 -0.360576 7.156198 0.000001 8.774814 -0.000001 -16.202805 18.031542 6.419363 -1.844031 2.498503 -2.507276 -10.163591 4.678939 4.621105 -20.975994 -0.000003 0.000003 -21.226255 2.451693 -3.593993 0.000001 -0.000006 -0.000000 -1.362680 2.240797 -0.746323 -21.334890 0.584909 3.008322 -13.821197 -0.000002 0.000002 -23.887133 -0.249078 -0.839480 -60.320621 2.638031 -1.097645 -0.294024 1.679685 0.833255 -14.218194 0.093215 1.300579 -34.212006 -0.287562 0.967171 -20.033184 0.964536 1.212842 -0.000000 -0.000000 0.000000 -3.440386 0.788233 0.501655 -15.928169 -3.167306 2.999705 -6.338817 -0.000001 0.000001 -18.123415 3.648176 -4.905662 -0.000006 -0.000000 -0.000002 -9.641920 17.475012 4.882683 69.602798 40.478649 1.118846 -178.668488 36.683144 -179.265228 -14.399421 9.469588 -22.824165 2.243540 -5.255033 -3.180152 14.282875 -0.826594 6.952494 -0.000002 -12.690588 0.000001 15.131899 -17.959366 3.034373 1.665665 -1.955920 -2.878298 4.727794 -4.170582 4.993920 11.020512 0.000001 0.000002 12.109033 -3.735709 -2.866779 0.000001 -0.000001 0.000001 1.291985 -1.928548 -1.498088 14.800111 0.567466 3.865604 14.242553 -1.341734 -6.660648 19.631939 0.143926 -0.648243 49.488235 -0.900947 -6.141916 0.353030 -1.511150 -0.031942 20.222767 3.684305 2.316629 18.787243 0.000006 -0.000001 10.751608 -0.479868 1.397904 0.000000 0.000002 0.000000 3.273803 0.305947 -0.580111 21.486790 11.830360 2.266131 8.162916 0.000001 -0.000001 18.399055 -3.798978 -4.940567 0.000002 -0.000002 -0.000000 15.852125 7.610747 -22.807686 -0.156244 -0.565052 25.001616 -17.159332 -4.000427 -0.430912 1.643242 -1.866832 0.202719 0.000000 0.000000 0.000002 -8.889746 -11.413252 -7.304068 0.148210 0.542903 27.852356 11.298284 2.096786 -18.631969 -1.431763 0.939254 -0.701730 0.000000 0.000000 -0.000001 
